<svg width="221" height="30" viewBox="0 0 221 30" fill="none" xmlns="http://www.w3.org/2000/svg">
<path fill-rule="evenodd" clip-rule="evenodd" d="M11.8953 0.124688C11.9451 0.174564 12.0199 0.174564 12.0698 0.174564C12.2444 0.174564 12.419 0.199501 12.5935 0.199501C12.7182 0.199501 12.818 0.199501 12.9426 0.224439C13.1172 0.249377 13.2918 0.274314 13.4663 0.299252C14.414 0.473815 15.3117 0.773067 16.1097 1.3217C16.783 1.77057 17.3067 2.36908 17.7057 3.06733C17.8304 3.29177 17.9551 3.51621 18.0549 3.74065C18.5287 4.81297 18.9277 5.91022 19.2269 7.03242C19.2768 7.20698 19.3017 7.35661 19.3516 7.53117C19.3766 7.63092 19.3766 7.70573 19.3766 7.80549C19.3766 7.93017 19.3516 8.00499 19.2519 8.0798C19.202 8.12967 19.1521 8.15461 19.0773 8.15461C19.0524 8.15461 19.0274 8.15461 19.0025 8.15461C18.803 8.15461 18.5786 8.15461 18.404 8.22943C18.3541 8.25436 18.3042 8.25436 18.2544 8.22943C17.9551 8.17955 17.6808 8.0798 17.4314 7.90524C17.1322 7.73067 16.8828 7.50623 16.6334 7.25686C16.3342 6.9576 16.0349 6.63342 15.7606 6.28429C15.4364 5.88529 15.1372 5.46135 14.8379 5.01247C14.7132 4.8379 14.5636 4.68828 14.3641 4.58853C14.2145 4.51371 14.0399 4.46384 13.8653 4.46384C13.5162 4.48878 13.1421 4.48878 12.793 4.48878C12.5686 4.48878 12.3691 4.48878 12.1446 4.53865C12.0948 4.53865 12.0199 4.53865 11.9451 4.53865C11.6958 4.53865 11.4464 4.53865 11.197 4.58853C11.1471 4.58853 11.0723 4.58853 10.9975 4.58853C10.8728 4.58853 10.7232 4.58853 10.5985 4.6384C10.5736 4.6384 10.5486 4.6384 10.5237 4.6384C10.2993 4.6384 10.0997 4.68828 9.87531 4.71322C9.52618 4.76309 9.17706 4.81297 8.85287 4.91272C8.72818 4.96259 8.60349 4.98753 8.50374 5.06234C8.37905 5.11222 8.30424 5.18703 8.22943 5.31172C8.20449 5.3616 8.17955 5.41147 8.12967 5.43641C8.02992 5.53616 7.95511 5.61097 7.85536 5.68578C7.65586 5.88529 7.50623 6.08479 7.35661 6.30923C7.08229 6.73317 6.95761 7.18204 6.95761 7.6808C6.95761 8.0798 6.95761 8.4788 6.98254 8.8778C7.00748 9.05237 6.98254 9.22693 7.00748 9.42643C7.00748 9.601 7.03242 9.77556 7.03242 9.92519C7.03242 10 7.03242 10.0997 7.05736 10.1746C7.08229 10.4988 7.13217 10.8479 7.23192 11.1471C7.25686 11.2469 7.2818 11.3466 7.35661 11.4464C7.38155 11.4963 7.43142 11.5461 7.50623 11.5461C7.60598 11.5461 7.70574 11.5461 7.80549 11.5461H13.192C13.3915 11.5461 13.591 11.5461 13.7905 11.5461C13.99 11.5461 14.1646 11.5461 14.3641 11.596C14.5387 11.6209 14.7132 11.6459 14.8628 11.6708C15.2618 11.7456 15.6608 11.8454 16.01 12.0449C16.2344 12.1696 16.409 12.2943 16.5835 12.4688C16.7082 12.5935 16.783 12.7431 16.808 12.9177C16.8579 13.217 16.9077 13.4913 16.9576 13.7905C16.9576 13.8404 16.9825 13.8903 16.9825 13.9152C16.9825 14.1895 16.9825 14.4638 16.9576 14.7132C16.9327 14.8628 16.9077 15.0125 16.8828 15.1621C16.8579 15.3117 16.808 15.4613 16.7332 15.586C16.6833 15.7107 16.6085 15.8105 16.4838 15.9102C16.384 16.01 16.2344 16.0598 16.0848 16.0848C15.9601 16.0848 15.8603 16.1097 15.7357 16.1347C15.6858 16.1596 15.611 16.1347 15.5362 16.1347C14.7132 16.1347 13.9152 16.1347 13.0923 16.1347C12.9676 16.1347 12.8678 16.1097 12.7431 16.1097C12.5935 16.1097 12.4439 16.0848 12.3192 16.0848C12.0948 16.0848 11.8454 16.0848 11.6209 16.0848C11.4963 16.0848 11.3466 16.0598 11.2219 16.0598C11.0723 16.0598 10.9227 16.0349 10.798 16.0349C10.5736 16.0349 10.3242 16.0349 10.0997 16.0349C9.97506 16.0349 9.87531 16.0349 9.75062 16.01C9.50125 15.985 9.25187 15.985 9.00249 15.985C8.97756 15.985 8.95262 15.985 8.92768 15.985C8.82793 15.985 8.75312 16.0349 8.70324 16.1097C8.60349 16.2843 8.52868 16.4589 8.55361 16.6833C8.55361 16.7332 8.55361 16.783 8.55361 16.8329C8.60349 17.182 8.65337 17.5312 8.70324 17.8803C8.72818 18.1047 8.75312 18.3042 8.77805 18.5287C8.80299 18.7282 8.82793 18.9277 8.85287 19.1272C8.8778 19.4264 8.92768 19.7257 8.95262 20C8.97755 20.2494 9.00249 20.4988 9.05237 20.7481C9.07731 20.9227 9.10224 21.0973 9.10224 21.2469C9.12718 21.4963 9.15212 21.7456 9.17706 21.995C9.20199 22.2693 9.22693 22.5686 9.25187 22.8429C9.25187 22.8678 9.25187 22.8928 9.25187 22.9177C9.27681 23.192 9.30174 23.4663 9.32668 23.7406C9.35162 24.0399 9.37656 24.3391 9.40149 24.6384C9.40149 24.7132 9.40149 24.788 9.42643 24.8628C9.42643 24.9875 9.45137 25.1372 9.45137 25.2618C9.45137 25.3367 9.45137 25.3865 9.47631 25.4613C9.50125 25.611 9.50125 25.7855 9.52618 25.9352C9.52618 26.01 9.52618 26.0848 9.55112 26.1596C9.55112 26.3092 9.57606 26.4588 9.57606 26.5835C9.57606 26.6583 9.57606 26.7581 9.601 26.8329C9.601 26.9825 9.62593 27.1322 9.62593 27.2569C9.62593 27.2818 9.62593 27.2818 9.62593 27.3067C9.65087 27.6309 9.67581 27.98 9.70075 28.3042C9.70075 28.379 9.70075 28.4289 9.70075 28.5037C9.75062 28.803 9.72568 29.1022 9.77556 29.4015C9.77556 29.4264 9.77556 29.4514 9.77556 29.4763C9.77556 29.5012 9.75062 29.5511 9.72569 29.5761C9.55112 29.7007 9.35162 29.7756 9.15212 29.8005C8.95262 29.8254 8.72818 29.8254 8.52868 29.8254C8.45386 29.8254 8.37905 29.8254 8.2793 29.8005C7.30673 29.7506 6.30923 29.3516 5.58603 28.7032C5.18703 28.3292 4.86284 27.9052 4.58853 27.4314C4.48878 27.2319 4.38903 27.0324 4.28928 26.8329C4.26434 26.783 4.2394 26.7332 4.2394 26.6833C4.18953 26.5586 4.18953 26.409 4.26434 26.2843C4.33915 26.1596 4.33915 26.0349 4.26434 25.9102C4.18953 25.6858 4.11471 25.4364 4.06484 25.212C3.99002 24.9127 3.96509 24.6135 3.91521 24.3142C3.86534 23.8903 3.86534 23.4913 3.8404 23.0673C3.81546 22.3441 3.81546 21.6209 3.79052 20.8728C3.76559 20.0748 3.76559 19.2768 3.74065 18.4788C3.71571 17.9302 3.69077 17.3566 3.69077 16.808C3.69077 16.6833 3.66584 16.5835 3.6409 16.4589C3.61596 16.409 3.59102 16.3342 3.56608 16.2843C3.49127 16.1596 3.39152 16.1097 3.26683 16.0848C3.24189 16.0848 3.24189 16.0848 3.21696 16.0848C2.3192 16.0848 1.62095 15.6858 1.07232 15.0125C0.84788 14.7631 0.673317 14.4638 0.523691 14.1895C0.399002 13.9651 0.299252 13.7406 0.199501 13.4913C0.174563 13.4414 0.149626 13.3666 0.124688 13.3167C0.0997506 13.2668 0.0498753 13.2668 0 13.2918V12.8678C0.0498753 12.8678 0.0997506 12.8429 0.124688 12.7681C0.199501 12.5436 0.349127 12.394 0.548628 12.2943C0.648379 12.2194 0.773067 12.1696 0.897756 12.1197C1.04738 12.0698 1.19701 11.995 1.34663 11.9701C1.7207 11.8703 2.1197 11.7955 2.5187 11.7456C2.56858 11.7456 2.61845 11.7207 2.64339 11.7207C2.91771 11.6459 3.09227 11.3716 3.04239 11.0973C3.01746 10.9726 2.99252 10.8229 2.96758 10.6983C2.84289 10.1247 2.74314 9.55112 2.61845 8.97755C2.54364 8.62843 2.49377 8.2793 2.44389 7.95511C2.39401 7.63092 2.34414 7.30673 2.29426 6.9576C2.26933 6.7581 2.24439 6.5586 2.21945 6.33416C2.19451 5.86035 2.19451 5.41147 2.21945 4.93765C2.21945 4.61347 2.29426 4.31421 2.41895 4.01496C2.59352 3.56608 2.84289 3.19202 3.16708 2.84289C3.4414 2.56858 3.71571 2.34414 4.0399 2.1197C4.4389 1.87032 4.86284 1.64588 5.31172 1.44638C6.20948 1.07232 7.15711 0.798005 8.10474 0.598504C8.45386 0.523691 8.77805 0.448878 9.12718 0.349127C9.27681 0.299252 9.42643 0.249377 9.57606 0.224439C9.92519 0.149626 10.2993 0.0498754 10.6733 0.0498754C10.7481 0.0498754 10.8229 0.0249377 10.8728 0H11.8953V0.124688Z" fill="#FF7F21"/>
<path fill-rule="evenodd" clip-rule="evenodd" d="M94.3891 29.9752C93.7906 30.0001 93.1921 29.9502 92.6186 29.9253C92.5437 29.9253 92.4939 29.9253 92.4191 29.9003C92.3442 29.9003 92.2944 29.8754 92.2196 29.8754C91.3218 29.7757 90.4739 29.5263 89.7009 29.0774C88.9527 28.6535 88.3293 28.055 87.8555 27.3318C87.631 27.0076 87.4565 26.6584 87.2819 26.2844C87.232 26.1348 87.1572 26.0101 87.1323 25.8604C86.833 24.838 86.5338 23.8156 86.2844 22.7931C86.1348 22.1447 85.9851 21.5213 85.8854 20.8729C85.8106 20.3991 85.7607 19.9003 85.7607 19.4265C85.7607 19.3018 85.7607 19.1522 85.7607 19.0275C85.7358 18.4789 85.7856 17.9552 85.8106 17.4066C85.8355 17.1572 85.8605 16.9078 85.8854 16.6584C85.9353 16.3343 85.9851 16.0101 86.06 15.6859C86.2595 14.838 86.5338 14.0151 86.9577 13.242C87.5562 12.1198 88.3542 11.1971 89.3517 10.424C89.8006 10.0749 90.2744 9.77565 90.7732 9.50134C91.0475 9.35171 91.3467 9.25196 91.646 9.12727C92.1697 8.92777 92.6934 8.77814 93.2171 8.65346C93.4664 8.60358 93.7158 8.5537 93.9652 8.52877C94.2146 8.47889 94.439 8.50383 94.6884 8.45395C94.7383 8.42902 94.8131 8.45395 94.8879 8.45395C95.4116 8.45395 95.9602 8.45395 96.4839 8.45395C96.5836 8.45395 96.7083 8.47889 96.8081 8.47889C96.833 8.47889 96.8829 8.47889 96.9078 8.50383C97.9303 8.57864 98.9028 8.82802 99.7258 9.10233C100.15 9.25196 100.549 9.40159 100.948 9.57615C101.097 9.65096 101.247 9.72578 101.372 9.80059C101.87 10.1497 102.319 10.5986 102.668 11.0973C102.993 11.5462 103.242 12.02 103.442 12.5188C103.566 12.7931 103.666 13.0924 103.766 13.3916C103.841 13.616 103.89 13.8405 103.94 14.0649C104.14 14.8879 104.314 15.6859 104.514 16.5088C104.564 16.7083 104.589 16.8829 104.539 17.0824C104.464 17.5313 104.364 17.9552 104.19 18.3791C104.115 18.5537 104.04 18.7283 103.94 18.8779C103.865 18.9776 103.791 19.0774 103.691 19.1522C103.541 19.2769 103.342 19.3517 103.142 19.3517C103.042 19.3517 102.918 19.3517 102.818 19.3517C102.768 19.3517 102.718 19.3517 102.668 19.3268C102.369 19.2769 102.095 19.227 101.796 19.1771C101.671 19.1522 101.521 19.1522 101.397 19.1023C101.272 19.0774 101.172 19.0774 101.047 19.0774C99.9502 19.0774 98.8779 19.0774 97.7807 19.0774C97.5063 19.0774 97.232 19.0774 96.9826 19.1273C96.9078 19.1273 96.8081 19.1273 96.7333 19.1273C96.5836 19.1273 96.434 19.1273 96.2844 19.1771C96.2096 19.2021 96.1348 19.1771 96.06 19.2021C95.9602 19.2021 95.8605 19.227 95.7607 19.227C95.7358 19.227 95.7108 19.252 95.6859 19.252C95.4615 19.252 95.262 19.3018 95.0375 19.3268C94.838 19.3517 94.6634 19.3766 94.4889 19.4016C94.3642 19.4265 94.2146 19.4515 94.0899 19.4515C93.4914 19.5512 92.8929 19.651 92.2944 19.7757C91.8206 19.8754 91.3717 19.9752 90.8979 20.0749C90.823 20.0998 90.7482 20.1248 90.6734 20.1248C90.5986 20.1497 90.5737 20.1996 90.5737 20.2744C90.5737 20.3492 90.5737 20.424 90.5986 20.4988C90.7732 21.5213 90.9727 22.5437 91.2969 23.5163C91.4714 24.0649 91.6709 24.6136 91.9452 25.1372C92.0949 25.4365 92.2694 25.7358 92.4939 26.0101C92.6684 26.2345 92.843 26.434 93.0674 26.6086C93.3916 26.8579 93.7408 27.0325 94.1398 27.1073C94.2146 27.1323 94.2894 27.1323 94.3642 27.1323C94.8131 27.1323 95.237 27.1323 95.6859 27.1323C95.7856 27.1323 95.8854 27.1073 95.9851 27.1073C96.035 27.1073 96.0849 27.0824 96.1098 27.0824C97.2819 26.9826 98.4789 26.5836 99.5263 25.9851C100.274 25.5362 100.923 25.0126 101.521 24.3891C102.12 23.7657 102.619 23.0674 103.067 22.3442C103.117 22.2445 103.192 22.1447 103.242 22.045C103.267 21.9951 103.342 21.9702 103.392 21.9702C103.466 21.9702 103.516 21.9702 103.591 21.9702C103.666 21.9702 103.716 21.9702 103.791 21.9702C104.015 21.9203 104.264 21.9203 104.489 21.9203C104.564 21.9203 104.639 21.8954 104.713 21.8954C104.788 21.8954 104.838 21.8704 104.913 21.8704C105.137 21.8704 105.337 21.8704 105.561 21.8205C105.636 21.7956 105.736 21.8205 105.811 21.8205C105.96 21.8205 106.11 21.7956 106.235 21.7956C106.434 21.7707 106.634 21.7707 106.833 21.7707C106.883 21.7707 106.908 21.8205 106.933 21.8455C106.933 21.8704 106.933 21.9203 106.958 21.9452C106.958 22.2944 106.958 22.6435 106.933 22.9926C106.908 23.2669 106.833 23.5662 106.758 23.8405C106.584 24.4141 106.309 24.9128 105.935 25.3866C105.611 25.8355 105.212 26.2096 104.788 26.5587C104.289 26.9826 103.741 27.3318 103.192 27.6559C102.444 28.0799 101.646 28.454 100.823 28.7781C99.8255 29.1771 98.828 29.5013 97.8056 29.7757C97.656 29.8255 97.4814 29.8505 97.3318 29.8505C97.2071 29.8754 97.1073 29.8754 96.9826 29.9003C96.7333 29.9253 96.5088 29.9502 96.2595 29.9752C95.9353 30.0001 95.5861 30.0001 95.2619 30.0001C94.8879 29.9752 94.6385 29.9752 94.3891 29.9752ZM99.5014 15.7357C99.5014 15.3617 99.4515 15.0126 99.4016 14.6634C99.3268 14.2644 99.227 13.8904 99.0774 13.5163C98.8779 12.9926 98.5787 12.5437 98.1797 12.1447C97.631 11.5961 96.9577 11.222 96.2096 10.9976C96.0849 10.9727 95.9602 10.9477 95.8355 10.9727C95.6111 11.0225 95.3617 11.0225 95.1373 11.0475C94.7383 11.1223 94.3642 11.247 93.9901 11.4215C93.3916 11.6959 92.9178 12.0949 92.4689 12.5687C92.1198 12.9677 91.8206 13.4165 91.5712 13.9153C91.2969 14.4141 91.0974 14.9627 90.8979 15.5113C90.7233 16.0101 90.5986 16.5338 90.5487 17.0574C90.5487 17.1073 90.5487 17.1572 90.5487 17.1821C90.5487 17.2071 90.5737 17.2569 90.6235 17.2569C90.7482 17.2569 90.8979 17.2569 91.0225 17.232C91.1223 17.2071 91.2221 17.2071 91.3218 17.2071C91.3717 17.2071 91.4216 17.2071 91.4714 17.1821C91.5712 17.1572 91.6709 17.1572 91.7707 17.1572C91.8206 17.1572 91.8704 17.1572 91.9203 17.1323C92.0201 17.1073 92.1198 17.1073 92.2196 17.1073C92.2694 17.1073 92.3193 17.1073 92.3692 17.0824C92.4689 17.0574 92.5687 17.0574 92.6684 17.0574C92.7432 17.0574 92.7931 17.0325 92.8679 17.0325C92.9677 17.0325 93.0425 17.0076 93.1422 17.0076C93.1921 17.0076 93.242 17.0076 93.2919 16.9826C93.3916 16.9577 93.5163 16.9577 93.6161 16.9328C93.6659 16.9328 93.7158 16.9328 93.7657 16.9078C93.8654 16.9078 93.9403 16.8829 94.04 16.8829C94.1148 16.8829 94.1647 16.8829 94.2395 16.8579C94.3393 16.833 94.4141 16.833 94.5138 16.833C94.5886 16.833 94.6385 16.833 94.7133 16.8081C94.8131 16.7831 94.9128 16.7831 95.0126 16.7831C95.0624 16.7831 95.1123 16.7831 95.1622 16.7582C95.3866 16.7333 95.5861 16.7083 95.8106 16.6834C96.035 16.6584 96.2595 16.6335 96.4839 16.6086C96.5836 16.6086 96.6585 16.5836 96.7582 16.5587C96.9826 16.5338 97.2071 16.5088 97.4315 16.4839C97.4565 16.4839 97.4565 16.4839 97.4814 16.4839C97.5812 16.4839 97.656 16.4589 97.7557 16.4589C97.8305 16.4589 97.8804 16.434 97.9552 16.434C98.055 16.434 98.1298 16.4091 98.2295 16.4091C98.3043 16.4091 98.3792 16.3841 98.454 16.3841C98.5288 16.3841 98.6036 16.3592 98.6784 16.3592C98.7532 16.3592 98.8031 16.3592 98.8779 16.3343C99.0026 16.3093 99.1023 16.3093 99.227 16.2844C99.3268 16.2844 99.4515 16.2594 99.5512 16.2345C99.5762 16.2345 99.6011 16.2096 99.6011 16.1846C99.6011 16.1348 99.626 16.0849 99.626 16.035C99.5263 15.9103 99.5014 15.8106 99.5014 15.7357Z" fill="#FF7F21"/>
<path fill-rule="evenodd" clip-rule="evenodd" d="M30.8228 30.0002C30.2243 30.0002 29.6258 29.9753 29.0522 29.9504C28.9774 29.9504 28.9275 29.9254 28.8527 29.9254C28.7779 29.9254 28.728 29.9005 28.6532 29.9005C27.7305 29.7758 26.8577 29.5264 26.0597 29.0526C25.2866 28.6037 24.6881 27.9803 24.2143 27.2322C24.0397 26.9329 23.8652 26.6336 23.7405 26.3344C23.6906 26.2097 23.6407 26.0601 23.5908 25.9354C23.2667 24.913 22.9923 23.8656 22.718 22.8182C22.5684 22.1947 22.4188 21.5464 22.319 20.9229C22.2442 20.4242 22.1943 19.9504 22.1943 19.4516C22.1943 19.2272 22.1943 18.9778 22.1943 18.7534C22.1943 18.479 22.1943 18.2047 22.2193 17.9055C22.2193 17.8307 22.2193 17.7558 22.2442 17.6561C22.319 16.5838 22.4936 15.5115 22.8677 14.489C23.541 12.5938 24.738 11.1224 26.4088 10.0252C27.2816 9.45161 27.531 9.35186 28.6033 8.97779C29.0522 8.82817 29.5011 8.70348 29.9499 8.62867C30.2492 8.57879 30.5485 8.50398 30.8477 8.50398C30.8726 8.50398 30.8976 8.50398 30.9225 8.50398C31.1719 8.4541 31.3963 8.4541 31.6457 8.4541C32.0696 8.4541 32.4686 8.4541 32.8926 8.4541C33.0173 8.4541 33.117 8.4541 33.2417 8.47904C33.2916 8.47904 33.3415 8.50398 33.3913 8.50398C33.6158 8.50398 33.8153 8.55385 34.0397 8.57879C34.339 8.62867 34.6133 8.67854 34.9125 8.75335C35.7604 8.95285 36.5584 9.22717 37.3564 9.5763C37.5559 9.65111 37.7305 9.7758 37.9051 9.87555C38.3789 10.2247 38.7779 10.6486 39.127 11.1224C39.5011 11.6461 39.7754 12.1947 39.9998 12.7933C40.1494 13.2172 40.2741 13.6411 40.3739 14.0651C40.5734 14.888 40.7729 15.7359 40.9475 16.5588C40.9475 16.6087 40.9724 16.6586 40.9724 16.7085C40.9973 16.7833 40.9973 16.8581 40.9724 16.908C40.9225 17.282 40.8477 17.681 40.723 18.0302C40.6731 18.2297 40.5983 18.4292 40.4986 18.6037C40.4238 18.7783 40.324 18.9279 40.1744 19.0775C40.0497 19.2022 39.9001 19.302 39.7006 19.3519C39.6756 19.3519 39.6756 19.3768 39.6507 19.3768C39.4512 19.3768 39.2766 19.3768 39.0771 19.3768C38.7031 19.302 38.3539 19.2521 37.9799 19.1773C37.7305 19.1274 37.4562 19.1025 37.2068 19.1025C36.2592 19.1025 35.3115 19.1025 34.3639 19.1025C34.1644 19.1025 33.9649 19.1025 33.7654 19.1025C33.6657 19.1025 33.5659 19.1025 33.4662 19.1274C33.3415 19.1274 33.1918 19.1524 33.0672 19.1524C32.9175 19.1524 32.7679 19.1524 32.6432 19.2022C32.5933 19.2022 32.5185 19.2272 32.4437 19.2272C32.319 19.2272 32.2193 19.2272 32.0946 19.2521C32.0447 19.277 31.9948 19.2521 31.945 19.277C31.8452 19.277 31.7455 19.302 31.6457 19.302C31.6208 19.302 31.5709 19.3269 31.546 19.3269C31.2966 19.3519 31.0721 19.4017 30.8228 19.4267C30.5484 19.4516 30.2741 19.5015 29.9998 19.5514C29.7504 19.5763 29.526 19.6262 29.2766 19.676C29.0522 19.7259 28.8278 19.7758 28.5784 19.8007C28.1794 19.8755 27.7804 19.9753 27.3814 20.0501C27.2317 20.075 27.1071 20.1249 26.9574 20.1499C26.9076 20.1499 26.8826 20.1997 26.8826 20.2496C26.8826 20.3244 26.8826 20.4242 26.9076 20.499C27.0821 21.4716 27.2816 22.4691 27.5559 23.4167C27.7056 23.9404 27.9051 24.4391 28.1295 24.9379C28.2791 25.2371 28.4287 25.5364 28.6282 25.8107C28.7779 26.0351 28.9524 26.2596 29.1519 26.4591C29.4512 26.7334 29.7754 26.9578 30.1494 27.0825C30.324 27.1324 30.5235 27.1823 30.6981 27.1823C31.0721 27.1823 31.4462 27.1823 31.7953 27.1823C31.9699 27.1823 32.1195 27.1823 32.2691 27.1324C32.2941 27.1324 32.319 27.1324 32.344 27.1324C32.743 27.1075 33.117 27.0327 33.516 26.9329C35.1619 26.5339 36.5335 25.686 37.7056 24.4641C38.329 23.8157 38.8776 23.0676 39.3514 22.2945C39.4013 22.2197 39.4512 22.1449 39.5011 22.0701C39.526 22.0202 39.5759 21.9952 39.6008 21.9952C39.6507 21.9952 39.7006 21.9952 39.7504 21.9952C39.8502 21.9952 39.925 21.9952 40.0248 21.9703C40.2492 21.9204 40.4487 21.9454 40.6731 21.9204C40.9474 21.8955 41.2218 21.8955 41.4961 21.8706C41.7205 21.8456 41.945 21.8207 42.1694 21.8207C42.2193 21.8207 42.2691 21.8207 42.319 21.7957C42.5185 21.7459 42.743 21.7708 42.9425 21.7459C42.9674 21.7459 42.9674 21.7459 42.9923 21.7459C43.0422 21.7459 43.0921 21.7957 43.0921 21.8207C43.0921 21.8706 43.117 21.9204 43.117 21.9703C43.117 22.2945 43.117 22.5938 43.0921 22.9179C43.0422 23.3419 42.9425 23.7409 42.7928 24.1399C42.5185 24.8132 42.1195 25.3868 41.6208 25.9105C41.2218 26.3344 40.7729 26.7085 40.2741 27.0576C39.5509 27.5563 38.7779 27.9803 37.9799 28.3543C37.0572 28.7783 36.0846 29.1274 35.112 29.4267C34.738 29.5514 34.339 29.6511 33.94 29.7758C33.8901 29.8007 33.8402 29.8007 33.7903 29.8007C33.4662 29.8506 33.142 29.8755 32.8178 29.9254C32.4437 29.9753 32.0696 29.9753 31.7205 29.9753C31.546 29.9753 31.1968 29.9753 30.8228 30.0002ZM35.9599 15.7608C35.9599 15.5364 35.935 15.287 35.91 15.0626C35.8602 14.5888 35.7355 14.1149 35.5609 13.6411C35.3614 13.0925 35.0372 12.5938 34.6382 12.1698C34.0896 11.6212 33.4163 11.2471 32.6681 11.0227C32.5435 10.9977 32.4188 10.9728 32.2941 10.9977C32.0696 11.0476 31.8203 11.0476 31.5958 11.0726C31.1968 11.1474 30.7978 11.2721 30.4238 11.4466C29.8253 11.7209 29.3265 12.1449 28.9026 12.6187C28.5534 13.0177 28.2791 13.4416 28.0297 13.9154C27.7554 14.4142 27.531 14.9628 27.3814 15.5115C27.3066 15.7858 27.2068 16.0601 27.132 16.3344C27.0821 16.5588 27.0572 16.8082 27.0073 17.0576C27.0073 17.1075 27.0073 17.1573 27.0073 17.1823C27.0073 17.2072 27.0322 17.2571 27.0821 17.2571C27.2317 17.2571 27.3814 17.2571 27.5061 17.2322C27.5809 17.2072 27.6557 17.2072 27.7554 17.2072C27.8302 17.2072 27.8801 17.2072 27.9549 17.1823C28.0547 17.1573 28.1544 17.1573 28.2542 17.1573C28.329 17.1573 28.4038 17.1324 28.4786 17.1324C28.5285 17.1324 28.5784 17.1075 28.6282 17.1075C28.8527 17.0825 29.0771 17.0576 29.3016 17.0327C29.3265 17.0327 29.3265 17.0327 29.3514 17.0327C29.4512 17.0327 29.526 17.0077 29.6258 17.0077C29.7006 17.0077 29.7504 17.0077 29.8253 16.9828C29.925 16.9578 29.9998 16.9578 30.0996 16.9578C30.1744 16.9578 30.2243 16.9578 30.2991 16.9329C30.3988 16.908 30.4986 16.908 30.5983 16.908C30.6482 16.908 30.6981 16.908 30.7479 16.883C30.8477 16.8581 30.9474 16.8581 31.0472 16.8581C31.0971 16.8581 31.147 16.8581 31.1968 16.8332C31.2966 16.8082 31.3963 16.8082 31.4961 16.8082C31.5709 16.8082 31.6457 16.7833 31.7205 16.7833C31.7704 16.7833 31.8203 16.7583 31.8701 16.7583L32.5435 16.6835C32.5684 16.6835 32.5684 16.6835 32.5933 16.6835C32.6681 16.6586 32.7679 16.6586 32.8676 16.6586C32.9175 16.6586 32.9674 16.6586 33.0173 16.6337C33.117 16.6087 33.2417 16.6087 33.3415 16.5838C33.3913 16.5838 33.4412 16.5838 33.4911 16.5588C33.5908 16.5339 33.6657 16.5339 33.7654 16.5339C33.8402 16.5339 33.8901 16.5339 33.9649 16.509C34.0647 16.484 34.1644 16.484 34.2642 16.484C34.314 16.484 34.3639 16.484 34.4138 16.4591C34.5135 16.4342 34.6133 16.4342 34.713 16.4342C34.7629 16.4342 34.8128 16.4342 34.8627 16.4092C34.9624 16.3843 35.0622 16.3843 35.1619 16.3843C35.2118 16.3843 35.2617 16.3843 35.3115 16.3593C35.4113 16.3344 35.511 16.3344 35.6108 16.3344C35.7105 16.3344 35.7854 16.3095 35.8851 16.2845C36.0098 16.2596 36.0347 16.2346 36.0347 16.11C35.9599 15.9603 35.9599 15.8606 35.9599 15.7608Z" fill="#FF7F21"/>
<path fill-rule="evenodd" clip-rule="evenodd" d="M45.7358 18.6533C45.7358 17.8055 45.7358 16.9576 45.7358 16.1097C45.7358 15.7356 45.7608 15.3616 45.8107 14.9875C45.8356 14.6384 45.9104 14.2893 46.0102 13.9651C46.06 13.8154 46.1099 13.6658 46.1847 13.5411C46.2346 13.4414 46.3094 13.3416 46.4092 13.2668C46.484 13.2169 46.5588 13.1671 46.6336 13.1421C46.8082 13.0922 46.9578 13.1172 47.0825 13.2169C47.1822 13.2918 47.282 13.3666 47.3817 13.4663C47.5812 13.6658 47.7807 13.8653 47.9802 14.0898C48.2545 14.4139 48.5039 14.7381 48.7782 15.0873C48.878 15.2119 48.9528 15.3616 49.0276 15.4863C49.277 15.9102 49.4515 16.384 49.6261 16.8578C49.7508 17.207 49.8506 17.5561 49.9503 17.8803C49.9752 17.9551 50.0002 18.0299 50.0251 18.1047C50.0251 18.1297 50.075 18.1297 50.0999 18.1047C50.1249 18.0798 50.1498 18.0548 50.1498 18.0299C50.4491 17.4314 50.8231 16.9077 51.2221 16.384C51.8456 15.586 52.5189 14.8628 53.1922 14.1147C53.2421 14.0648 53.3169 13.99 53.3668 13.9401C54.3393 13.0922 55.3618 12.2942 56.459 11.596C57.4565 10.9725 58.5289 10.4239 59.6261 9.99998C60.0002 9.85035 60.3742 9.70073 60.7732 9.60098C60.9478 9.5511 61.1224 9.50123 61.2969 9.52616C61.4216 9.5511 61.5463 9.5511 61.671 9.60098C61.8206 9.65085 61.9952 9.65085 62.1448 9.62592C62.3194 9.60098 62.469 9.57604 62.6436 9.5511C62.7433 9.52616 62.8431 9.5511 62.9428 9.57604C63.1174 9.62592 63.2919 9.67579 63.4416 9.77554C63.6411 9.90023 63.7907 10.0499 63.8655 10.2743C63.9154 10.399 63.9403 10.5486 63.9403 10.6982C63.9403 10.773 63.8904 10.8479 63.8655 10.9227C63.8655 10.9476 63.8904 10.9725 63.8904 10.9975C63.8904 10.9975 63.9154 10.9975 63.9403 11.0224C63.9902 11.0474 64.0401 11.0474 64.0899 11.0723C64.1897 11.1222 64.2396 11.197 64.2645 11.2967C64.2645 11.3466 64.2645 11.3965 64.2645 11.4214C64.2645 11.5711 64.2645 11.7207 64.2645 11.8454C64.2645 11.995 64.2146 12.1446 64.1398 12.2942C64.09 12.394 64.0151 12.4688 63.9653 12.5686C63.9154 12.6184 63.8655 12.6683 63.8406 12.7431C63.8156 12.793 63.7907 12.8429 63.7907 12.8927C63.7907 12.9426 63.7907 12.9925 63.7907 13.0673C63.7907 13.3167 63.7159 13.5162 63.5663 13.7157C63.4914 13.8404 63.3668 13.9401 63.267 14.0149C63.1423 14.1147 63.0176 14.2144 62.868 14.2893C62.7433 14.3641 62.6186 14.4139 62.469 14.4638C62.1947 14.5636 61.9702 14.6883 61.7209 14.8379C60.2745 15.6858 58.853 16.6085 57.5313 17.6309C56.6585 18.3042 56.6585 18.3042 55.8855 19.1022C55.3119 19.7007 54.7633 20.2992 54.2645 20.9476C53.9902 21.2967 53.7159 21.6459 53.4665 22.0199C53.3418 22.1945 53.2421 22.394 53.1423 22.5686C52.7932 23.2419 52.4441 23.9152 52.1199 24.5885C51.9703 24.9127 51.8206 25.2618 51.6959 25.611C51.6211 25.8354 51.5214 26.0848 51.4715 26.3341C51.3967 26.6833 51.2969 27.0075 51.1972 27.3566C50.9977 28.1297 50.7732 28.9027 50.5737 29.6758C50.4989 29.975 50.5239 30 50.1997 29.8753C49.4515 29.576 48.7533 29.1272 48.1299 28.6035C48.055 28.5287 47.9802 28.4788 47.9054 28.404C47.6062 28.1546 47.3568 27.8304 47.1573 27.4813C46.8331 26.9326 46.5837 26.3591 46.3842 25.7356C46.2097 25.187 46.085 24.6384 46.0102 24.0898C45.9603 23.7656 45.9104 23.4414 45.8605 23.0922C45.8356 22.793 45.7857 22.4937 45.7857 22.1945C45.7857 22.1446 45.7857 22.0947 45.7857 22.0199C45.7358 21.5711 45.7358 21.1471 45.7358 20.6982C45.7358 20.0249 45.7358 19.3516 45.7358 18.6533Z" fill="#FF7F21"/>
<path fill-rule="evenodd" clip-rule="evenodd" d="M83.9651 12.793C83.9651 12.8678 83.9651 12.9426 83.9651 13.0174C83.9651 13.3167 83.8654 13.566 83.6659 13.7905C83.5412 13.9401 83.3666 14.0897 83.1921 14.1895C82.9676 14.3391 82.7432 14.4388 82.4938 14.5386C82.3691 14.5885 82.2444 14.6383 82.1198 14.7132C80.5986 15.586 79.1272 16.5336 77.7557 17.6059C76.6085 18.4787 76.8579 18.2792 75.9851 19.2019C75.3866 19.8254 74.813 20.4738 74.2644 21.1471C73.9402 21.5461 73.616 21.97 73.3666 22.4189C73.217 22.6932 73.0674 22.9675 72.9178 23.2418C72.6185 23.7905 72.3442 24.364 72.0948 24.9376C71.9701 25.2119 71.8704 25.4862 71.7706 25.7605C71.6958 25.985 71.621 26.2344 71.5711 26.4588C71.5462 26.5835 71.4963 26.7331 71.4714 26.8578C71.222 27.8054 70.9477 28.778 70.6983 29.7256C70.6734 29.8004 70.6484 29.8503 70.6235 29.9251C70.6235 29.9501 70.5736 29.975 70.5237 29.975C70.4988 29.975 70.4489 29.9501 70.424 29.9501C70 29.8004 69.626 29.6009 69.2519 29.3516C68.7282 29.0274 68.2295 28.6284 67.8055 28.2044C67.7058 28.1047 67.631 28.0049 67.5562 27.9052C67.232 27.4563 66.9826 26.9825 66.7582 26.4588C66.5088 25.8603 66.3342 25.2119 66.2095 24.5635C66.1098 24.1396 66.0599 23.6907 66.01 23.2668C65.9851 22.9925 65.9601 22.7181 65.9352 22.4438C65.8604 21.6209 65.8853 20.7979 65.8853 19.975C65.8853 18.9027 65.8853 17.8304 65.8853 16.758C65.8853 16.4339 65.8853 16.1346 65.8853 15.8104C65.8853 15.4862 65.9103 15.187 65.9601 14.8628C65.9851 14.5885 66.035 14.3391 66.1098 14.0648C66.1597 13.9152 66.2095 13.7655 66.2843 13.6159C66.3592 13.4912 66.434 13.3665 66.5337 13.2668C66.6085 13.192 66.7332 13.1421 66.833 13.1172C66.9577 13.0922 67.0574 13.1172 67.1322 13.167C67.207 13.2169 67.2818 13.2668 67.3567 13.3167C67.5063 13.4413 67.631 13.566 67.7557 13.7157C68.1796 14.1645 68.5537 14.6383 68.9277 15.1371C69.1272 15.3865 69.2519 15.6857 69.4016 15.985C69.6509 16.5585 69.8504 17.1321 70.025 17.7306C70.0499 17.8304 70.0749 17.9301 70.1247 18.0299C70.1497 18.0797 70.1746 18.1047 70.1996 18.1047C70.2494 18.1047 70.2494 18.0548 70.2744 18.0299C70.5986 17.3566 71.0724 16.7331 71.5462 16.1595C72.1197 15.4613 72.7183 14.788 73.3417 14.1396C73.4165 14.0648 73.4664 14.0149 73.5412 13.9401C74.4888 13.0922 75.5113 12.3191 76.5836 11.6458C77.5562 11.0224 78.6035 10.4987 79.6759 10.0748C80.0998 9.90019 80.4988 9.75057 80.9477 9.62588C81.0973 9.576 81.2469 9.52613 81.3966 9.55107C81.4963 9.55107 81.5711 9.55107 81.6709 9.576C81.7457 9.60094 81.8454 9.62588 81.9452 9.65082C82.0699 9.67575 82.1946 9.67575 82.3193 9.65082C82.4938 9.62588 82.6684 9.60094 82.8429 9.576C82.9427 9.55107 83.0424 9.576 83.1422 9.60094C83.3168 9.65082 83.4913 9.70069 83.6409 9.80044C83.8404 9.92513 83.9901 10.0748 84.0898 10.2992C84.1646 10.4987 84.1896 10.7231 84.1148 10.9226C84.0898 10.9725 84.1148 10.9975 84.1646 11.0224H84.1896C84.2145 11.0224 84.2394 11.0473 84.2644 11.0473C84.414 11.0972 84.4888 11.2219 84.5138 11.3715C84.5138 11.571 84.5138 11.7705 84.5138 11.97C84.5138 12.0947 84.4639 12.2443 84.3891 12.3441C84.3143 12.4438 84.2394 12.5685 84.1646 12.6683C84.0399 12.6932 83.9901 12.7431 83.9651 12.793Z" fill="#FF7F21"/>
<path d="M131.571 19.71C130.833 19.71 130.215 19.535 129.716 19.185C129.216 18.835 128.841 18.359 128.589 17.757C128.337 17.1503 128.211 16.4713 128.211 15.72C128.211 14.9593 128.337 14.278 128.589 13.676C128.841 13.074 129.209 12.6003 129.695 12.255C130.185 11.905 130.789 11.73 131.508 11.73C132.222 11.73 132.84 11.905 133.363 12.255C133.89 12.6003 134.298 13.074 134.588 13.676C134.877 14.2733 135.022 14.9547 135.022 15.72C135.022 16.476 134.879 17.155 134.595 17.757C134.31 18.359 133.909 18.835 133.391 19.185C132.873 19.535 132.266 19.71 131.571 19.71ZM127.924 19.5V9.42H129.625V14.194H129.415V19.5H127.924ZM131.312 18.198C131.75 18.198 132.112 18.0883 132.397 17.869C132.681 17.6497 132.891 17.3533 133.027 16.98C133.167 16.602 133.237 16.182 133.237 15.72C133.237 15.2627 133.167 14.8473 133.027 14.474C132.887 14.096 132.67 13.7973 132.376 13.578C132.082 13.354 131.708 13.242 131.256 13.242C130.826 13.242 130.476 13.347 130.206 13.557C129.935 13.7623 129.734 14.0517 129.604 14.425C129.478 14.7937 129.415 15.2253 129.415 15.72C129.415 16.21 129.478 16.6417 129.604 17.015C129.734 17.3883 129.937 17.68 130.213 17.89C130.493 18.0953 130.859 18.198 131.312 18.198ZM140.001 19.71C139.236 19.71 138.564 19.5443 137.985 19.213C137.407 18.8817 136.954 18.422 136.627 17.834C136.305 17.246 136.144 16.5693 136.144 15.804C136.144 14.978 136.303 14.2617 136.62 13.655C136.938 13.0437 137.379 12.57 137.943 12.234C138.508 11.898 139.161 11.73 139.903 11.73C140.687 11.73 141.352 11.9143 141.898 12.283C142.449 12.647 142.857 13.1627 143.123 13.83C143.389 14.4973 143.49 15.2837 143.424 16.189H141.751V15.573C141.747 14.7517 141.602 14.152 141.317 13.774C141.033 13.396 140.585 13.207 139.973 13.207C139.283 13.207 138.769 13.4217 138.433 13.851C138.097 14.2757 137.929 14.8987 137.929 15.72C137.929 16.4853 138.097 17.078 138.433 17.498C138.769 17.918 139.259 18.128 139.903 18.128C140.319 18.128 140.676 18.037 140.974 17.855C141.278 17.6683 141.511 17.4 141.674 17.05L143.34 17.554C143.051 18.2353 142.603 18.765 141.996 19.143C141.394 19.521 140.729 19.71 140.001 19.71ZM137.397 16.189V14.915H142.598V16.189H137.397ZM149.417 19.5C148.918 19.5933 148.428 19.633 147.947 19.619C147.471 19.6097 147.044 19.5233 146.666 19.36C146.288 19.192 146.001 18.9283 145.805 18.569C145.633 18.2423 145.542 17.9087 145.532 17.568C145.523 17.2273 145.518 16.8423 145.518 16.413V9.84H147.198V16.315C147.198 16.6183 147.201 16.8843 147.205 17.113C147.215 17.3417 147.264 17.5283 147.352 17.673C147.52 17.953 147.789 18.1093 148.157 18.142C148.526 18.1747 148.946 18.156 149.417 18.086V19.5ZM144.146 13.263V11.94H149.417V13.263H144.146ZM154.639 19.5C154.14 19.5933 153.65 19.633 153.169 19.619C152.693 19.6097 152.266 19.5233 151.888 19.36C151.51 19.192 151.223 18.9283 151.027 18.569C150.855 18.2423 150.764 17.9087 150.754 17.568C150.745 17.2273 150.74 16.8423 150.74 16.413V9.84H152.42V16.315C152.42 16.6183 152.423 16.8843 152.427 17.113C152.437 17.3417 152.486 17.5283 152.574 17.673C152.742 17.953 153.011 18.1093 153.379 18.142C153.748 18.1747 154.168 18.156 154.639 18.086V19.5ZM149.368 13.263V11.94H154.639V13.263H149.368ZM159.716 19.71C158.951 19.71 158.279 19.5443 157.7 19.213C157.122 18.8817 156.669 18.422 156.342 17.834C156.02 17.246 155.859 16.5693 155.859 15.804C155.859 14.978 156.018 14.2617 156.335 13.655C156.653 13.0437 157.094 12.57 157.658 12.234C158.223 11.898 158.876 11.73 159.618 11.73C160.402 11.73 161.067 11.9143 161.613 12.283C162.164 12.647 162.572 13.1627 162.838 13.83C163.104 14.4973 163.205 15.2837 163.139 16.189H161.466V15.573C161.462 14.7517 161.317 14.152 161.032 13.774C160.748 13.396 160.3 13.207 159.688 13.207C158.998 13.207 158.484 13.4217 158.148 13.851C157.812 14.2757 157.644 14.8987 157.644 15.72C157.644 16.4853 157.812 17.078 158.148 17.498C158.484 17.918 158.974 18.128 159.618 18.128C160.034 18.128 160.391 18.037 160.689 17.855C160.993 17.6683 161.226 17.4 161.389 17.05L163.055 17.554C162.766 18.2353 162.318 18.765 161.711 19.143C161.109 19.521 160.444 19.71 159.716 19.71ZM157.112 16.189V14.915H162.313V16.189H157.112ZM164.701 19.5V11.94H166.192V13.781L166.01 13.543C166.104 13.291 166.227 13.0623 166.381 12.857C166.54 12.647 166.729 12.4743 166.948 12.339C167.135 12.213 167.34 12.115 167.564 12.045C167.793 11.9703 168.026 11.926 168.264 11.912C168.502 11.8933 168.733 11.9027 168.957 11.94V13.515C168.733 13.4497 168.474 13.4287 168.18 13.452C167.891 13.4753 167.63 13.557 167.396 13.697C167.163 13.823 166.972 13.984 166.822 14.18C166.678 14.376 166.57 14.6 166.5 14.852C166.43 15.0993 166.395 15.3677 166.395 15.657V19.5H164.701ZM173.429 19.71C172.668 19.71 172.024 19.5397 171.497 19.199C170.97 18.8583 170.568 18.3893 170.293 17.792C170.022 17.19 169.882 16.4993 169.873 15.72C169.882 14.9267 170.027 14.2313 170.307 13.634C170.587 13.032 170.991 12.5653 171.518 12.234C172.045 11.898 172.685 11.73 173.436 11.73C174.201 11.73 174.866 11.9167 175.431 12.29C176 12.6633 176.39 13.1743 176.6 13.823L175.592 14.145C175.415 13.6923 175.132 13.3423 174.745 13.095C174.362 12.843 173.924 12.717 173.429 12.717C172.874 12.717 172.414 12.8453 172.05 13.102C171.686 13.354 171.415 13.7063 171.238 14.159C171.061 14.6117 170.97 15.132 170.965 15.72C170.974 16.6253 171.184 17.3533 171.595 17.904C172.006 18.45 172.617 18.723 173.429 18.723C173.942 18.723 174.379 18.6063 174.738 18.373C175.102 18.135 175.377 17.7897 175.564 17.337L176.6 17.645C176.32 18.317 175.909 18.8303 175.368 19.185C174.827 19.535 174.18 19.71 173.429 19.71ZM180.997 19.71C180.246 19.71 179.604 19.5397 179.072 19.199C178.54 18.8583 178.132 18.387 177.847 17.785C177.562 17.183 177.42 16.4923 177.42 15.713C177.42 14.9197 177.565 14.2243 177.854 13.627C178.143 13.0297 178.554 12.5653 179.086 12.234C179.623 11.898 180.26 11.73 180.997 11.73C181.753 11.73 182.397 11.9003 182.929 12.241C183.466 12.577 183.874 13.046 184.154 13.648C184.439 14.2453 184.581 14.9337 184.581 15.713C184.581 16.5063 184.439 17.204 184.154 17.806C183.869 18.4033 183.459 18.87 182.922 19.206C182.385 19.542 181.744 19.71 180.997 19.71ZM180.997 18.723C181.837 18.723 182.462 18.4453 182.873 17.89C183.284 17.33 183.489 16.6043 183.489 15.713C183.489 14.7983 183.281 14.0703 182.866 13.529C182.455 12.9877 181.832 12.717 180.997 12.717C180.432 12.717 179.966 12.8453 179.597 13.102C179.233 13.354 178.96 13.7063 178.778 14.159C178.601 14.607 178.512 15.125 178.512 15.713C178.512 16.623 178.722 17.3533 179.142 17.904C179.562 18.45 180.18 18.723 180.997 18.723ZM189.282 19.71C188.531 19.71 187.889 19.5397 187.357 19.199C186.825 18.8583 186.417 18.387 186.132 17.785C185.847 17.183 185.705 16.4923 185.705 15.713C185.705 14.9197 185.85 14.2243 186.139 13.627C186.428 13.0297 186.839 12.5653 187.371 12.234C187.908 11.898 188.545 11.73 189.282 11.73C190.038 11.73 190.682 11.9003 191.214 12.241C191.751 12.577 192.159 13.046 192.439 13.648C192.724 14.2453 192.866 14.9337 192.866 15.713C192.866 16.5063 192.724 17.204 192.439 17.806C192.154 18.4033 191.744 18.87 191.207 19.206C190.67 19.542 190.029 19.71 189.282 19.71ZM189.282 18.723C190.122 18.723 190.747 18.4453 191.158 17.89C191.569 17.33 191.774 16.6043 191.774 15.713C191.774 14.7983 191.566 14.0703 191.151 13.529C190.74 12.9877 190.117 12.717 189.282 12.717C188.717 12.717 188.251 12.8453 187.882 13.102C187.518 13.354 187.245 13.7063 187.063 14.159C186.886 14.607 186.797 15.125 186.797 15.713C186.797 16.623 187.007 17.3533 187.427 17.904C187.847 18.45 188.465 18.723 189.282 18.723ZM194.403 19.5L194.41 9.42H195.446V15.58L198.82 11.94H200.192L196.65 15.72L200.654 19.5H199.156L195.446 15.86V19.5H194.403ZM201.495 10.505V9.35H202.524V10.505H201.495ZM201.495 19.5V11.94H202.524V19.5H201.495ZM210.083 19.5V15.643C210.083 15.223 210.043 14.838 209.964 14.488C209.885 14.1333 209.756 13.8253 209.579 13.564C209.406 13.298 209.18 13.0927 208.9 12.948C208.625 12.8033 208.289 12.731 207.892 12.731C207.528 12.731 207.206 12.794 206.926 12.92C206.651 13.046 206.417 13.228 206.226 13.466C206.039 13.6993 205.897 13.984 205.799 14.32C205.701 14.656 205.652 15.0387 205.652 15.468L204.924 15.307C204.924 14.5323 205.059 13.8813 205.33 13.354C205.601 12.8267 205.974 12.4277 206.45 12.157C206.926 11.8863 207.472 11.751 208.088 11.751C208.541 11.751 208.935 11.821 209.271 11.961C209.612 12.101 209.899 12.29 210.132 12.528C210.37 12.766 210.561 13.039 210.706 13.347C210.851 13.6503 210.956 13.9747 211.021 14.32C211.086 14.6607 211.119 15.0013 211.119 15.342V19.5H210.083ZM204.616 19.5V11.94H205.547V13.802H205.652V19.5H204.616ZM215.939 23.07C215.551 23.07 215.169 23.0117 214.791 22.895C214.417 22.783 214.072 22.6033 213.755 22.356C213.437 22.1133 213.171 21.796 212.957 21.404L213.888 20.886C214.098 21.306 214.392 21.607 214.77 21.789C215.152 21.9757 215.542 22.069 215.939 22.069C216.485 22.069 216.926 21.9663 217.262 21.761C217.602 21.5603 217.85 21.2617 218.004 20.865C218.158 20.4683 218.232 19.9737 218.228 19.381V17.365H218.347V11.94H219.264V19.395C219.264 19.6097 219.257 19.815 219.243 20.011C219.233 20.2117 219.212 20.4077 219.18 20.599C219.091 21.1637 218.907 21.628 218.627 21.992C218.351 22.356 217.987 22.6267 217.535 22.804C217.087 22.9813 216.555 23.07 215.939 23.07ZM215.869 19.71C215.164 19.71 214.562 19.535 214.063 19.185C213.563 18.8303 213.181 18.352 212.915 17.75C212.649 17.148 212.516 16.469 212.516 15.713C212.516 14.9617 212.646 14.285 212.908 13.683C213.174 13.081 213.554 12.605 214.049 12.255C214.543 11.905 215.136 11.73 215.827 11.73C216.536 11.73 217.133 11.9027 217.619 12.248C218.104 12.5933 218.47 13.067 218.718 13.669C218.97 14.2663 219.096 14.9477 219.096 15.713C219.096 16.4643 218.972 17.1433 218.725 17.75C218.477 18.352 218.113 18.8303 217.633 19.185C217.152 19.535 216.564 19.71 215.869 19.71ZM215.974 18.751C216.51 18.751 216.954 18.6203 217.304 18.359C217.654 18.0977 217.915 17.7383 218.088 17.281C218.26 16.819 218.347 16.2963 218.347 15.713C218.347 15.1203 218.26 14.5977 218.088 14.145C217.915 13.6877 217.654 13.3307 217.304 13.074C216.958 12.8173 216.522 12.689 215.995 12.689C215.453 12.689 215.005 12.822 214.651 13.088C214.296 13.354 214.032 13.7157 213.86 14.173C213.692 14.6303 213.608 15.1437 213.608 15.713C213.608 16.287 213.694 16.805 213.867 17.267C214.044 17.7243 214.308 18.086 214.658 18.352C215.008 18.618 215.446 18.751 215.974 18.751Z" fill="#757575"/>
<path d="M116.958 0L116.958 30" stroke="#757575"/>
</svg>
